<svg aria-hidden="true" style="position: absolute; width: 0; height: 0; overflow: hidden;" version="1.1" xmlns="http://www.w3.org/2000/svg" xmlns:xlink="http://www.w3.org/1999/xlink">
<defs>
<symbol id="icon-cultural" viewBox="0 0 32 32">
<path d="M31.258 8.824c-0.782-1.66-3.498-2.2-7.169-1.71 0.143-3.7-0.649-6.355-2.376-6.977-2.488-0.895-6.175 2.7-9.173 8.511-6.387-1.395-11.509-0.847-12.404 1.641-0.622 1.725 0.918 4.028 3.86 6.278-2.717 2.515-4.034 4.952-3.254 6.612s3.498 2.2 7.169 1.71c-0.143 3.7 0.649 6.355 2.376 6.977 2.488 0.895 6.175-2.7 9.173-8.511 6.387 1.395 11.509 0.847 12.404-1.641 0.622-1.725-0.918-4.028-3.86-6.278 2.717-2.517 4.034-4.954 3.254-6.612zM20.283 4.111c1.147 0.414 1.927 1.586 2.315 3.246-2.111 0.41-4.467 1.118-6.906 2.107-0.851-0.256-1.687-0.479-2.507-0.672 2.271-3.483 5.013-5.431 7.095-4.683l0.002 0.002zM21.394 17.942c-0.271 0.75-0.567 1.473-0.882 2.164-0.658 0.38-1.349 0.744-2.072 1.082-0.723 0.34-1.441 0.641-2.154 0.906-0.733-0.195-1.479-0.429-2.229-0.7-1.752-0.63-3.353-1.403-4.74-2.25 0.231-1.609 0.658-3.334 1.288-5.086 0.271-0.75 0.567-1.473 0.882-2.164 0.658-0.38 1.349-0.744 2.072-1.082 0.723-0.34 1.441-0.641 2.154-0.906 0.733 0.195 1.479 0.429 2.229 0.7 1.752 0.63 3.353 1.401 4.74 2.25-0.231 1.609-0.658 3.334-1.288 5.086zM23.207 13.187c1.139 0.742 2.114 1.536 2.883 2.338-1.151 1.452-2.868 2.927-4.984 4.225 0.221-0.548 0.437-1.109 0.641-1.681 0.601-1.668 1.086-3.311 1.458-4.883h0.002zM20.213 20.732c-0.338 0.687-0.695 1.34-1.069 1.95-0.708-0.101-1.439-0.242-2.185-0.42 0.544-0.231 1.093-0.475 1.641-0.733 0.55-0.258 1.086-0.525 1.611-0.796h0.002zM15.633 22.327c-2.349 0.8-4.58 1.185-6.431 1.145-0.128-1.105-0.118-2.361 0.038-3.712 1.448 0.716 3.023 1.391 4.691 1.992 0.572 0.206 1.139 0.397 1.704 0.576h-0.002zM8.793 18.814c-1.139-0.742-2.114-1.536-2.883-2.338 1.151-1.452 2.868-2.927 4.983-4.225-0.221 0.548-0.437 1.109-0.641 1.681-0.601 1.668-1.086 3.311-1.458 4.883h-0.002zM11.786 11.267c0.338-0.687 0.695-1.34 1.069-1.95 0.708 0.101 1.439 0.242 2.185 0.42-0.544 0.231-1.092 0.475-1.641 0.733s-1.086 0.525-1.611 0.796h-0.002zM18.070 10.25c-0.572-0.206-1.139-0.397-1.704-0.576 2.349-0.8 4.58-1.185 6.431-1.145 0.128 1.105 0.118 2.362-0.038 3.712-1.448-0.716-3.023-1.391-4.691-1.992h0.002zM4.112 11.719c0.75-2.082 4-2.952 8.131-2.479-0.374 0.754-0.735 1.542-1.080 2.359-2.319 1.248-4.364 2.609-6.026 3.975-1.032-1.359-1.437-2.706-1.025-3.855zM4.565 21.379c-0.519-1.103-0.239-2.483 0.658-3.933 1.023 0.691 2.17 1.368 3.423 2.015-0.3 1.376-0.511 2.691-0.63 3.92-1.689-0.231-2.931-0.897-3.45-2v-0.002zM11.719 27.89c-1.147-0.414-1.927-1.586-2.315-3.246 2.111-0.41 4.467-1.118 6.906-2.107 0.851 0.256 1.687 0.479 2.506 0.672-2.271 3.483-5.013 5.431-7.095 4.683l-0.002-0.002zM27.89 20.282c-0.75 2.082-4 2.952-8.131 2.479 0.374-0.754 0.735-1.542 1.080-2.359 2.32-1.248 4.364-2.609 6.026-3.975 1.032 1.359 1.437 2.706 1.025 3.855zM26.777 14.555c-1.023-0.691-2.17-1.368-3.423-2.015 0.3-1.376 0.511-2.691 0.63-3.92 1.689 0.231 2.931 0.897 3.45 2s0.239 2.483-0.658 3.933v0.002z"></path>
<path d="M19.089 17.101c0.609-1.706-0.28-3.582-1.986-4.191s-3.582 0.28-4.191 1.986c-0.609 1.706 0.28 3.582 1.986 4.191s3.582-0.28 4.191-1.986z"></path>
</symbol>
<symbol id="icon-take-over" viewBox="0 0 32 32">
<path d="M15.999 32c-8.822 0-15.999-7.177-15.999-15.999s7.177-16.001 15.999-16.001c8.822 0 16.001 7.177 16.001 16.001s-7.177 15.999-16.001 15.999zM15.999 0.885c-8.333 0-15.114 6.781-15.114 15.116s6.781 15.114 15.114 15.114c8.333 0 15.116-6.781 15.116-15.114s-6.781-15.116-15.116-15.116z"></path>
<path d="M15.999 32c-6.396 0-11.6-7.177-11.6-15.999s5.204-16.001 11.6-16.001c6.396 0 11.6 7.177 11.6 16.001s-5.204 15.999-11.6 15.999zM15.999 0.885c-5.909 0-10.715 6.781-10.715 15.116s4.808 15.114 10.715 15.114c5.907 0 10.715-6.781 10.715-15.114s-4.806-15.116-10.715-15.116z"></path>
<path d="M15.999 32c-1.599 0-3.061-1.725-4.111-4.859-1.002-2.983-1.553-6.94-1.553-11.142s0.551-8.159 1.553-11.142c1.053-3.132 2.512-4.857 4.111-4.857s3.061 1.725 4.111 4.859c1.002 2.983 1.553 6.94 1.553 11.142s-0.551 8.159-1.553 11.142c-1.050 3.134-2.512 4.859-4.111 4.859v-0.002zM15.999 0.885c-2.309 0-4.779 6.073-4.779 15.116s2.47 15.114 4.779 15.114c2.309 0 4.779-6.073 4.779-15.114s-2.47-15.116-4.779-15.116z"></path>
<path d="M15.999 8.473c-4.28 0-8.274-1.221-11.246-3.437l0.529-0.71c2.82 2.103 6.626 3.26 10.718 3.26s7.896-1.159 10.718-3.26l0.529 0.71c-2.972 2.216-6.967 3.437-11.246 3.437z"></path>
<path d="M16.003 29.171c-4.939 0-9.548-1.409-12.978-3.963l0.529-0.71c3.278 2.444 7.699 3.788 12.449 3.788s9.172-1.345 12.449-3.788l0.529 0.71c-3.43 2.557-8.039 3.963-12.978 3.963z"></path>
<path d="M15.999 14.168c-5.553 0-10.735-1.581-14.59-4.456l0.529-0.71c3.702 2.76 8.696 4.279 14.062 4.279s10.359-1.519 14.062-4.279l0.529 0.71c-3.855 2.873-9.037 4.456-14.59 4.456z"></path>
<path d="M15.999 25.423c-5.821 0-11.251-1.659-15.289-4.669l0.529-0.71c3.888 2.897 9.13 4.494 14.76 4.494s10.872-1.597 14.76-4.494l0.529 0.71c-4.038 3.010-9.468 4.669-15.289 4.669z"></path>
<path d="M15.999 19.812c-6.022 0-11.642-1.716-15.822-4.832l0.529-0.71c4.027 3.003 9.459 4.655 15.293 4.655s11.266-1.654 15.293-4.655l0.529 0.71c-4.18 3.116-9.8 4.832-15.822 4.832z"></path>
<path d="M15.999 3.8c-2.234 0-4.322-0.639-5.878-1.8l0.529-0.71c1.404 1.046 3.304 1.623 5.35 1.623s3.946-0.577 5.35-1.623l0.529 0.71c-1.557 1.161-3.645 1.8-5.878 1.8z"></path>
</symbol>
<symbol id="icon-tattoo-family" viewBox="0 0 32 32">
<path d="M29.121 14.345c-1.199-1.199-3.139-1.199-4.338 0l-4.079 4.079c-1.199 1.199-1.199 3.139 0 4.338s3.139 1.199 4.337 0l4.079-4.079c1.199-1.199 1.199-3.139 0-4.337z"></path>
<path d="M22.486 25.643c-1.245 0-2.416-0.486-3.297-1.365s-1.365-2.052-1.365-3.297 0.486-2.416 1.365-3.297l4.856-4.856c0.88-0.88 2.052-1.365 3.297-1.365s2.416 0.486 3.297 1.365c0.88 0.88 1.363 2.050 1.363 3.297s-0.484 2.418-1.363 3.297l-4.856 4.856c-0.88 0.88-2.052 1.365-3.297 1.365zM27.339 12.277c-1.028 0-1.995 0.4-2.722 1.128l-4.856 4.856c-0.727 0.727-1.128 1.694-1.128 2.722s0.4 1.995 1.128 2.722c0.727 0.727 1.694 1.128 2.722 1.128s1.995-0.4 2.722-1.128l4.856-4.856c0.725-0.725 1.125-1.692 1.125-2.722s-0.4-1.997-1.125-2.722c-0.727-0.727-1.694-1.128-2.722-1.128z"></path>
<path d="M11.298 9.238c-1.199-1.199-3.139-1.199-4.338 0l-4.079 4.079c-1.199 1.199-1.199 3.139 0 4.338s3.139 1.199 4.338 0l4.079-4.079c1.199-1.199 1.199-3.139 0-4.337z"></path>
<path d="M4.663 20.538c-1.245 0-2.416-0.486-3.297-1.365s-1.365-2.052-1.365-3.297 0.486-2.416 1.365-3.297l4.856-4.856c0.88-0.882 2.052-1.365 3.297-1.365s2.416 0.486 3.297 1.365c0.88 0.88 1.363 2.050 1.363 3.297s-0.484 2.418-1.363 3.297l-4.856 4.856c-0.88 0.882-2.052 1.365-3.297 1.365zM9.518 7.17c-1.028 0-1.995 0.4-2.722 1.128l-4.856 4.856c-0.727 0.727-1.128 1.694-1.128 2.722s0.4 1.995 1.128 2.722c0.727 0.727 1.694 1.128 2.722 1.128s1.995-0.4 2.722-1.128l4.856-4.856c0.725-0.725 1.126-1.692 1.126-2.722s-0.4-1.997-1.126-2.722c-0.727-0.727-1.694-1.128-2.722-1.128z"></path>
<path d="M14.345 2.879c-1.199 1.199-1.199 3.139 0 4.338l4.079 4.080c1.199 1.199 3.139 1.199 4.338 0s1.199-3.139 0-4.338l-4.079-4.079c-1.199-1.199-3.139-1.199-4.338 0z"></path>
<path d="M20.98 14.179c-1.245 0-2.416-0.486-3.297-1.365l-4.856-4.856c-0.88-0.88-1.365-2.052-1.365-3.297s0.486-2.416 1.365-3.297c0.88-0.88 2.050-1.363 3.297-1.363s2.418 0.484 3.297 1.363l4.856 4.856c0.88 0.88 1.365 2.052 1.365 3.297s-0.486 2.416-1.365 3.297c-0.88 0.88-2.052 1.365-3.297 1.365zM16.127 0.813c-0.985 0-1.973 0.376-2.722 1.126-0.727 0.727-1.128 1.694-1.128 2.722s0.4 1.995 1.128 2.722l4.856 4.856c0.727 0.727 1.694 1.127 2.722 1.127s1.995-0.4 2.722-1.127c0.727-0.727 1.128-1.694 1.128-2.722s-0.4-1.995-1.128-2.722l-4.856-4.856c-0.75-0.75-1.737-1.125-2.722-1.125z"></path>
<path d="M9.238 20.702c-1.199 1.199-1.199 3.139 0 4.338l4.079 4.079c1.199 1.199 3.139 1.199 4.338 0s1.199-3.139 0-4.338l-4.079-4.079c-1.199-1.199-3.139-1.199-4.337 0z"></path>
<path d="M15.875 32c-1.245 0-2.416-0.486-3.297-1.365l-4.856-4.856c-0.882-0.88-1.365-2.052-1.365-3.297s0.486-2.416 1.365-3.297c0.88-0.88 2.050-1.363 3.297-1.363s2.418 0.484 3.297 1.363l4.856 4.856c0.88 0.882 1.365 2.052 1.365 3.297s-0.486 2.416-1.365 3.297c-0.88 0.88-2.052 1.365-3.297 1.365zM11.019 18.636c-0.985 0-1.971 0.376-2.722 1.125s-1.128 1.694-1.128 2.722c0 1.028 0.4 1.995 1.128 2.722l4.856 4.856c0.727 0.727 1.694 1.128 2.722 1.128s1.995-0.4 2.722-1.128c0.727-0.727 1.128-1.694 1.128-2.722s-0.4-1.995-1.128-2.722l-4.856-4.856c-0.75-0.75-1.737-1.125-2.722-1.125z"></path>
</symbol>
<symbol id="icon-banana" viewBox="0 0 32 32">
<path d="M31.681 26.45l-13.642-23.633c-0.906-1.569-3.169-1.569-4.075 0l-13.645 23.633c-0.906 1.569 0.227 3.529 2.036 3.529h27.289c1.811 0 2.942-1.96 2.038-3.529h-0.002zM24.529 26.425h-17.059c-1.133 0-1.841-1.225-1.274-2.207l8.529-14.773c0.566-0.98 1.982-0.98 2.546 0l8.529 14.773c0.566 0.98-0.142 2.207-1.274 2.207h0.002z"></path>
</symbol>
<symbol id="icon-ink" viewBox="0 0 32 32">
<path d="M21.053 8.244l-4.42-7.658c-0.293-0.508-1.027-0.508-1.321 0l-4.422 7.658c-0.293 0.508 0.073 1.143 0.659 1.143h8.843c0.587 0 0.955-0.636 0.659-1.143h0.002zM18.737 8.234h-5.529c-0.366 0-0.596-0.398-0.413-0.714l2.763-4.787c0.183-0.317 0.642-0.317 0.825 0l2.763 4.787c0.183 0.317-0.045 0.714-0.413 0.714h0.004z"></path>
<path d="M10.89 23.448l4.422 7.658c0.293 0.508 1.027 0.508 1.321 0l4.422-7.658c0.293-0.508-0.073-1.143-0.659-1.143h-8.843c-0.587 0-0.955 0.636-0.659 1.143h-0.004zM13.208 23.456h5.529c0.366 0 0.596 0.398 0.413 0.714l-2.763 4.787c-0.183 0.317-0.642 0.317-0.825 0l-2.763-4.787c-0.183-0.317 0.045-0.714 0.413-0.714h-0.004z"></path>
<path d="M23.96 21.015l7.658-4.422c0.508-0.293 0.508-1.027 0-1.321l-7.658-4.42c-0.508-0.293-1.143 0.073-1.143 0.659v8.843c0 0.587 0.636 0.955 1.143 0.659v0.002zM23.968 18.697v-5.529c0-0.366 0.398-0.596 0.714-0.413l4.787 2.763c0.317 0.183 0.317 0.642 0 0.825l-4.787 2.763c-0.317 0.183-0.714-0.045-0.714-0.413v0.004z"></path>
<path d="M8.040 10.852l-7.658 4.42c-0.508 0.293-0.508 1.027 0 1.321l7.658 4.422c0.508 0.293 1.143-0.073 1.143-0.659v-8.843c0-0.587-0.636-0.955-1.143-0.659v-0.002zM8.030 13.168v5.529c0 0.366-0.398 0.596-0.714 0.413l-4.787-2.763c-0.317-0.183-0.317-0.642 0-0.825l4.787-2.763c0.317-0.183 0.714 0.045 0.714 0.413v-0.004z"></path>
<path d="M19.667 11.306h-7.39c-0.516 0-0.933 0.417-0.933 0.933v7.39c0 0.516 0.417 0.933 0.933 0.933h7.39c0.516 0 0.933-0.417 0.933-0.933v-7.39c0-0.516-0.417-0.933-0.933-0.933zM19.303 18.333c0 0.516-0.417 0.933-0.933 0.933h-4.8c-0.516 0-0.933-0.417-0.933-0.933v-4.8c0-0.516 0.417-0.933 0.933-0.933h4.8c0.516 0 0.933 0.417 0.933 0.933v4.8z"></path>
</symbol>
<symbol id="icon-inkflu" viewBox="0 0 32 32">
<path d="M20.58 32.004c-0.627 0-1.214-0.244-1.657-0.685l-7.725-7.725c-1.193-1.195-2.782-1.853-4.48-1.853-1.124 0-2.227 0.299-3.19 0.865-0.359 0.211-0.769 0.324-1.187 0.324-0.732 0-1.408-0.332-1.855-0.91-0.72-0.929-0.634-2.259 0.197-3.090l7.717-7.717c1.195-1.195 1.853-2.788 1.853-4.484 0-1.123-0.301-2.229-0.871-3.2-0.593-1.013-0.342-2.319 0.59-3.038 0.414-0.32 0.91-0.488 1.431-0.488 0.627 0 1.214 0.244 1.657 0.685l7.721 7.721c1.199 1.199 2.792 1.86 4.484 1.86 1.124 0 2.231-0.303 3.2-0.877 0.361-0.215 0.773-0.326 1.193-0.326 0.73 0 1.406 0.33 1.853 0.906 0.722 0.931 0.638 2.261-0.195 3.092l-7.729 7.729c-1.199 1.199-1.86 2.792-1.86 4.484 0 1.119 0.303 2.225 0.875 3.2 0.593 1.013 0.342 2.319-0.59 3.038-0.414 0.32-0.908 0.488-1.431 0.488zM6.717 20.959c1.905 0 3.694 0.74 5.033 2.081l7.725 7.725c0.295 0.295 0.687 0.457 1.105 0.457 0.349 0 0.677-0.113 0.955-0.326 0.621-0.478 0.789-1.349 0.392-2.026-0.642-1.095-0.982-2.339-0.982-3.596 0-1.901 0.742-3.69 2.089-5.037l7.729-7.729c0.554-0.554 0.611-1.441 0.129-2.062-0.299-0.385-0.748-0.605-1.236-0.605-0.279 0-0.552 0.076-0.795 0.219-1.089 0.644-2.333 0.986-3.596 0.986-1.901 0-3.69-0.742-5.037-2.089l-7.719-7.719c-0.295-0.295-0.687-0.457-1.105-0.457-0.348 0-0.677 0.113-0.955 0.326-0.621 0.478-0.789 1.349-0.392 2.026 0.638 1.091 0.978 2.335 0.978 3.596 0 1.905-0.74 3.694-2.081 5.037l-7.719 7.715c-0.554 0.554-0.611 1.441-0.131 2.060 0.299 0.385 0.748 0.607 1.236 0.607 0.277 0 0.55-0.074 0.791-0.215 1.082-0.636 2.321-0.972 3.586-0.972v-0.002z"></path>
<path d="M29.659 11.407l-7.729 7.729c-1.642 1.642-2.546 3.82-2.546 6.14 0 1.57 0.424 3.069 1.195 4.385l-7.725-7.725c-1.634-1.638-3.816-2.538-6.136-2.538-1.566 0-3.065 0.416-4.377 1.189l7.717-7.717c1.638-1.638 2.538-3.816 2.538-6.14 0-1.57-0.42-3.069-1.191-4.385l7.721 7.721c1.642 1.642 3.82 2.546 6.14 2.546 1.57 0 3.077-0.424 4.392-1.203v-0.002z"></path>
</symbol>
</defs>
</svg>
