<svg aria-hidden="true" style="position: absolute; width: 0; height: 0; overflow: hidden;" version="1.1" xmlns="http://www.w3.org/2000/svg" xmlns:xlink="http://www.w3.org/1999/xlink">
<defs>
<symbol id="icon-mob-logo-text" viewBox="0 0 70 32">
<path d="M59.447 14.547h10.479v2.124h-12.745v-16.521h12.556v2.124h-10.29v4.98h9.865v2.124h-9.865v5.169z"></path>
<path d="M46.623 0.15c4.036 0 6.514 2.219 6.514 5.428s-2.478 5.452-6.514 5.452h-4.484v5.641h-2.266v-16.521h6.75zM46.623 8.859c2.667 0 4.154-1.18 4.154-3.281 0-2.077-1.487-3.257-4.154-3.257h-4.484v6.537h4.484z"></path>
<path d="M36.397 0.15l-7.222 9.865v6.655h-2.266v-6.655l-7.222-9.865h2.808l5.546 7.765 5.546-7.765h2.809z"></path>
<path d="M13.944 0.15h2.266v16.521h-2.266v-7.293h-10.479v7.293h-2.266v-16.521h2.266v7.104h10.479v-7.104z"></path>
<path d="M66.981 30.581c-1.732 0-3.010-1.127-3.010-2.745s1.278-2.746 3.010-2.746c1.739 0 3.018 1.127 3.018 2.746s-1.278 2.745-3.018 2.745zM66.981 29.885c1.339 0 2.261-0.832 2.261-2.050s-0.923-2.050-2.261-2.050c-1.331 0-2.254 0.832-2.254 2.050s0.923 2.050 2.254 2.050z"></path>
<path d="M62.652 25.188v5.294h-0.726v-5.294h0.726z"></path>
<path d="M57.588 25.188c1.739 0 3.018 1.029 3.018 2.647s-1.278 2.647-3.018 2.647h-2.133v-5.294h2.133zM57.588 29.787c1.376 0 2.261-0.764 2.261-1.951s-0.885-1.951-2.261-1.951h-1.407v3.903h1.407z"></path>
<path d="M51.376 30.581c-1.83 0-2.39-1.036-2.39-2.511v-2.882h0.756v2.882c0 1.316 0.454 1.815 1.634 1.815 1.165 0 1.626-0.484 1.626-1.815v-2.882h0.756v2.882c0 1.444-0.537 2.511-2.382 2.511z"></path>
<path d="M47.871 25.188v0.681h-1.982v4.614h-0.726v-4.614h-1.982v-0.681h4.689z"></path>
<path d="M40.14 30.581c-0.991 0-1.944-0.378-2.382-0.658l0.363-0.635c0.529 0.356 1.286 0.598 2.027 0.598 0.87 0 1.49-0.287 1.49-0.847 0-0.643-0.824-0.711-1.55-0.839-1.679-0.303-2.171-0.681-2.171-1.467 0-1.271 1.263-1.641 2.33-1.641 0.756 0 1.429 0.189 2.004 0.507l-0.355 0.613c-0.537-0.295-1.051-0.424-1.664-0.424-1.029 0-1.558 0.34-1.558 0.9 0 0.446 0.325 0.643 1.558 0.832 0.741 0.114 2.163 0.31 2.163 1.498 0 0.923-0.877 1.566-2.254 1.566z"></path>
<path d="M31.676 30.581c-1.732 0-3.010-1.127-3.010-2.745s1.278-2.746 3.010-2.746c1.74 0 3.018 1.127 3.018 2.746s-1.278 2.745-3.018 2.745zM31.676 29.885c1.339 0 2.261-0.832 2.261-2.050s-0.923-2.050-2.261-2.050c-1.331 0-2.254 0.832-2.254 2.050s0.923 2.050 2.254 2.050z"></path>
<path d="M24.709 30.581c-1.732 0-3.010-1.127-3.010-2.745s1.278-2.746 3.010-2.746c1.74 0 3.018 1.127 3.018 2.746s-1.278 2.745-3.018 2.745zM24.709 29.885c1.339 0 2.261-0.832 2.261-2.050s-0.923-2.050-2.261-2.050c-1.331 0-2.254 0.832-2.254 2.050s0.923 2.050 2.254 2.050z"></path>
<path d="M21.377 25.188v0.681h-1.982v4.614h-0.726v-4.614h-1.982v-0.681h4.689z"></path>
<path d="M16.154 25.188v0.681h-1.982v4.614h-0.726v-4.614h-1.982v-0.681h4.689z"></path>
<path d="M10.692 30.483l-0.628-1.422h-2.776l-0.628 1.422h-0.809l2.413-5.294h0.832l2.405 5.294h-0.809zM7.591 28.38h2.171l-1.082-2.451-1.089 2.451z"></path>
<path d="M5.888 25.188v0.681h-1.982v4.614h-0.726v-4.614h-1.982v-0.681h4.689z"></path>
</symbol>
</defs>
</svg>
