<svg aria-hidden="true" style="position: absolute; width: 0; height: 0; overflow: hidden;" version="1.1" xmlns="http://www.w3.org/2000/svg" xmlns:xlink="http://www.w3.org/1999/xlink">
<defs>
<symbol id="icon-overlay-close" viewBox="0 0 32 32">
<path d="M17.201 16.004c0 0.766-0.621 1.387-1.387 1.387s-1.387-0.621-1.387-1.387c0-0.766 0.621-1.387 1.387-1.387s1.387 0.621 1.387 1.387z"></path>
<path d="M31.828 15.173v1.665l-15.722-0.37v-0.925l15.722-0.37z"></path>
<path d="M30.786 21.751l-0.677 1.521-14.213-6.731 0.376-0.845 14.514 6.056z"></path>
<path d="M27.162 27.329l-1.235 1.116-10.263-11.916 0.686-0.62 10.812 11.42z"></path>
<path d="M21.59 30.954l-1.581 0.52-4.558-15.051 0.879-0.289 5.261 14.82z"></path>
<path d="M14.956 32.001l-1.656-0.173 2.002-15.598 0.92 0.096-1.266 15.675z"></path>
<path d="M8.504 30.254l-1.439-0.836 8.216-13.409 0.8 0.465-7.577 13.781z"></path>
<path d="M3.338 26.038l-0.974-1.35 12.964-8.902 0.541 0.75-12.531 9.502z"></path>
<path d="M0.343 20.12l-0.343-1.629 15.46-2.878 0.191 0.905-15.308 3.602z"></path>
<path d="M0.020 13.398l0.355-1.626 15.28 3.719-0.198 0.903-15.438-2.996z"></path>
<path d="M2.458 7.179l0.989-1.339 12.426 9.638-0.549 0.744-12.866-9.043z"></path>
<path d="M7.164 2.529l1.446-0.825 7.475 13.836-0.803 0.459-8.117-13.469z"></path>
<path d="M13.444 0.16l1.657-0.16 1.145 15.684-0.92 0.089-1.881-15.613z"></path>
<path d="M20.146 0.576l1.577 0.532-5.373 14.78-0.876-0.295 4.671-15.016z"></path>
<path d="M26.007 3.632l1.227 1.125-10.895 11.341-0.682-0.625 10.349-11.841z"></path>
<path d="M30.19 8.901l0.66 1.528-14.58 5.893-0.367-0.849 14.287-6.572z"></path>
</symbol>
</defs>
</svg>
