<svg aria-hidden="true" style="position:absolute;width:0;height:0;overflow:hidden" xmlns="http://www.w3.org/2000/svg">
  <defs>
    <symbol id="icon-site-logo" viewBox="0 0 27 32">
      <path d="M10.727 11.855s-3.392 2.505-1.21 4.902c2.809 3.11 5.79 6.046 7.173 7.796 1.253 1.576 1.448 4.859-.605 6.5-1.88 1.512-5.402 1.317-8.232-1.317-2.809-2.613-5.596-5.744-6.936-7.472-2.204-2.85-.994-11.575 9.809-10.409zM16.367 20.146s3.392-2.505 1.21-4.902c-2.809-3.11-5.79-6.046-7.173-7.796-1.253-1.576-1.448-4.859.605-6.5 1.88-1.512 5.402-1.317 8.232 1.317s5.574 5.766 6.936 7.472c2.29 2.894.972 11.575-9.809 10.409z"/>
    </symbol>
  </defs>
</svg>
